<?xml version="1.0" encoding="utf-8"?>
<!-- Generator: Adobe Illustrator 16.0.4, SVG Export Plug-In . SVG Version: 6.00 Build 0)  -->
<!DOCTYPE svg PUBLIC "-//W3C//DTD SVG 1.1//EN" "http://www.w3.org/Graphics/SVG/1.1/DTD/svg11.dtd">
<svg version="1.1" id="Layer_1" xmlns="http://www.w3.org/2000/svg" xmlns:xlink="http://www.w3.org/1999/xlink" x="0px" y="0px"
	width="30px" height="30px" viewBox="0 0 600 600" enable-background="new 0 0 600 600" xml:space="preserve">
  <path
    d="M75,275 l225,225 l225,-225 l-50,-50 l-175,175 l-175,-175
      Z"
      stroke="rgba(255,255,255, .75)"
      stroke-width="2"
      fill="rgba(255,255,255, .75)"/>
  <path
    d="M25,300 l0,0
      a1,1 0 0,1 550,0
      a1,1 0 0,1 -550,0
      Z"
      stroke="rgba(255,255,255, .75)"
      stroke-width="50"
      fill="none"/>
  <!-- <path
    d="M0,0 l0,500Z"
      stroke="rgba(255,255,255, 1)"
      stroke-width="2"/>
  <path
    d="M100,0 l0,500Z"
      stroke="rgba(255,255,255, 1)"
      stroke-width="2"/>
  <path
    d="M200,0 l0,500Z"
      stroke="rgba(255,255,255, 1)"
      stroke-width="2"/>
  <path
    d="M300,0 l0,500Z"
      stroke="rgba(255,255,255, 1)"
      stroke-width="2"/>
  <path
    d="M400,0 l0,500Z"
      stroke="rgba(255,255,255, 1)"
      stroke-width="2"/>
  <path
    d="M500,0 l0,500Z"
      stroke="rgba(255,255,255, 1)"
      stroke-width="2"/>
  <path
    d="M600,0 l0,500Z"
      stroke="rgba(255,255,255, 1)"
      stroke-width="2"/>

  <path
    d="M0,0 600,0Z"
      stroke="rgba(255,255,255, 1)"
      stroke-width="2"/>
  <path
    d="M0,100 600,100Z"
      stroke="rgba(255,255,255, 1)"
      stroke-width="2"/>
  <path
    d="M0,200 600,200Z"
      stroke="rgba(255,255,255, 1)"
      stroke-width="2"/>
  <path
    d="M0,300 600,300Z"
      stroke="rgba(255,255,255, 1)"
      stroke-width="2"/>
  <path
    d="M0,400 600,400Z"
      stroke="rgba(255,255,255, 1)"
      stroke-width="2"/>
  <path
    d="M0,500 600,500Z"
      stroke="rgba(255,255,255, 1)"
      stroke-width="2"/> -->

</svg>
